Coordinates
version=1
nRows=10
nColumns=40
inDegrees=yes

Units are S.I. units (second, meters, Newtons, ...)
Angles are in degrees.

endheader
time	pelvis_tilt	pelvis_list	pelvis_rotation	pelvis_tx	pelvis_ty	pelvis_tz	hip_flexion_r	hip_adduction_r	hip_rotation_r	knee_angle_r	knee_angle_r_beta	ankle_angle_r	subtalar_angle_r	mtp_angle_r	hip_flexion_l	hip_adduction_l	hip_rotation_l	knee_angle_l	knee_angle_l_beta	ankle_angle_l	subtalar_angle_l	mtp_angle_l	lumbar_extension	lumbar_bending	lumbar_rotation	arm_flex_r	arm_add_r	arm_rot_r	elbow_flex_r	pro_sup_r	wrist_flex_r	wrist_dev_r	arm_flex_l	arm_add_l	arm_rot_l	elbow_flex_l	pro_sup_l	wrist_flex_l	wrist_dev_l
     36.44000000	     -5.76016628	     -6.64353107	      2.34359049	      1.07957432	      0.91624059	      0.47320259	     24.76628043	      3.18451258	    -12.39486864	     22.61037235	     22.61037235	      5.08849280	     -8.81431739	     -0.15428616	      5.15822354	    -13.63600853	     -5.06596964	     40.42067414	     40.42067414	      9.77635906	     -3.96149689	    -21.11747717	    -10.27390870	      7.64079822	      2.28984973	     -4.37378195	    -13.18721123	      0.82575724	     36.15334873	     45.76923559	      0.00000000	      0.00000000	     16.53642431	    -20.32064494	      8.25565601	     98.13674685	     47.74155570	      0.00000000	      0.00000000
     36.45142857	     -5.74958191	     -6.67130240	      2.53680607	      1.08067207	      0.91735222	      0.47566014	     23.99207647	      3.27472416	    -13.00255653	     22.43715643	     22.43715643	      5.83394710	     -7.86424468	     -0.17176252	      6.89527632	    -13.92248660	     -3.77656584	     43.83715690	     43.83715690	      6.63644989	     -6.34120214	    -22.06773359	    -10.26461537	      7.60882080	      2.30596018	     -3.58158704	    -13.56206889	      1.48170042	     39.04731024	     45.62119211	      0.00000000	      0.00000000	     15.05546347	    -19.63162503	      7.95567519	     94.89358279	     47.73031305	      0.00000000	      0.00000000
     36.46285714	     -5.77256297	     -6.68845336	      2.69616002	      1.08155184	      0.91836543	      0.47812683	     23.21083303	      3.39942712	    -13.48354161	     22.13833628	     22.13833628	      6.39595848	     -7.04989522	     -0.40813621	      8.87379354	    -14.16045712	     -2.52671302	     47.50882805	     47.50882805	      4.15082608	     -7.99170942	    -20.97350370	    -10.24551688	      7.54967917	      2.03130957	     -2.05276111	    -13.61607625	      1.42142958	     40.56448868	     45.57616282	      0.00000000	      0.00000000	     13.37692977	    -19.46534592	      8.05641225	     91.98379706	     47.67075691	      0.00000000	      0.00000000
     36.47428571	     -5.75753883	     -6.71096140	      2.84977156	      1.08227474	      0.91933482	      0.48043375	     22.42011116	      3.47646865	    -14.18984608	     21.90588756	     21.90588756	      6.96874326	     -5.98254481	     -0.65408842	     10.93464968	    -14.32291333	     -1.29991846	     51.20914556	     51.20914556	      2.06787727	     -9.46753966	    -18.65367669	    -10.31042390	      7.48756567	      2.18565411	     -0.95843140	    -13.93913551	      1.39589400	     42.79482270	     45.50040365	      0.00000000	      0.00000000	     12.19735181	    -18.59052587	      7.74785605	     88.17611554	     47.63088112	      0.00000000	      0.00000000
     36.48571429	     -5.79200397	     -6.75878767	      2.94731538	      1.08275341	      0.92019776	      0.48274871	     21.64945061	      3.63800668	    -14.72130480	     21.55636797	     21.55636797	      7.49248322	     -5.03311182	     -0.69064495	     13.20528307	    -14.51338629	     -0.23810150	     54.99450409	     54.99450409	      1.04963247	     -9.98748156	    -14.26478974	    -10.36100211	      7.45477637	      2.68808958	     -0.29515414	    -14.42594694	      1.22918965	     45.94836392	     45.40041566	      0.00000000	      0.00000000	     11.43182761	    -17.63043541	      7.89074469	     83.79940601	     47.57005488	      0.00000000	      0.00000000
     36.49714286	     -5.89462762	     -6.64188759	      3.06676104	      1.08300901	      0.92101705	      0.48485605	     20.95636950	      3.61930671	    -15.19420130	     21.19589585	     21.19589585	      7.92338368	     -4.18537167	     -0.84667777	     15.44886636	    -14.31485538	      0.88820272	     58.25684037	     58.25684037	     -0.63398260	    -11.67788627	    -11.71402411	    -10.32324801	      7.14634947	      2.18933454	      1.46694359	    -14.34957688	      0.96000843	     47.78105614	     45.35817445	      0.00000000	      0.00000000	      9.97083742	    -17.54860772	      7.88576726	     79.91913216	     47.50231894	      0.00000000	      0.00000000
     36.50857143	     -5.89028618	     -6.71524378	      3.11539231	      1.08309020	      0.92181167	      0.48688341	     20.23943423	      3.80915659	    -15.58736550	     20.97093961	     20.97093961	      8.46209931	     -3.34918248	     -0.75229854	     17.83788343	    -14.47347383	      1.71320449	     61.78120806	     61.78120806	      0.08987889	    -11.37260056	     -4.79304766	    -10.50288148	      7.21395526	      3.27335895	      1.98676936	    -15.08264631	      0.25399303	     51.14801544	     45.28927598	      0.00000000	      0.00000000	      9.86812897	    -16.11558770	      8.20610398	     74.80297286	     47.43136452	      0.00000000	      0.00000000
     36.52000000	     -5.92940156	     -6.81769017	      3.22582124	      1.08298351	      0.92255029	      0.48882291	     19.51937770	      4.06690265	    -15.90321614	     20.58971678	     20.58971678	      8.78405061	     -2.83990892	     -0.83745287	     20.04273612	    -14.54390697	      2.54838972	     64.41838710	     64.41838710	     -1.24305211	    -12.91792805	     -3.84481598	    -10.64423738	      7.17729010	      3.02194144	      4.03424087	    -15.18640090	     -0.02392052	     52.47637919	     45.26628986	      0.00000000	      0.00000000	      8.28060570	    -15.98347881	      8.34511509	     72.08087940	     47.36966267	      0.00000000	      0.00000000
     36.53142857	     -5.95783300	     -6.67393490	      3.30367428	      1.08273278	      0.92342729	      0.49041095	     18.82953604	      3.95882441	    -16.43063377	     20.35278316	     20.35278316	      9.25837931	     -1.68590529	     -1.02862721	     22.22653142	    -14.31003821	      3.13312429	     66.85610227	     66.85610227	     -1.11036374	    -13.81470021	     -0.45026882	    -10.70181225	      6.93124513	      3.43242658	      5.35924538	    -15.68651936	      0.11564963	     54.99338369	     45.18754445	      0.00000000	      0.00000000	      8.52348509	    -14.23285761	      6.95395708	     64.67405454	     47.36215513	      0.00000000	      0.00000000
     36.54285714	     -6.01996753	     -6.69916375	      3.42218411	      1.08228721	      0.92420611	      0.49196821	     18.13628240	      4.12614958	    -16.67868783	     19.93000045	     19.93000045	      9.56755014	     -1.18640649	     -0.96851551	     24.49087745	    -14.29072294	      3.65860671	     68.95514293	     68.95514293	     -0.78283456	    -14.59146648	      2.08199872	    -10.80832418	      6.84593772	      3.74329506	      6.76164850	    -16.12082357	     -0.16348780	     57.61817269	     45.12812023	      0.00000000	      0.00000000	      8.12528460	    -13.25325963	      6.50306111	     59.52609450	     47.32057345	      0.00000000	      0.00000000
